<?xml version="1.0" standalone="no"?>
<!DOCTYPE svg PUBLIC "-//W3C//DTD SVG 20010904//EN"
 "http://www.w3.org/TR/2001/REC-SVG-20010904/DTD/svg10.dtd">
<svg version="1.0" xmlns="http://www.w3.org/2000/svg"
 width="512.000000pt" height="512.000000pt" viewBox="0 0 512.000000 512.000000"
 preserveAspectRatio="xMidYMid meet">
<metadata>
Created by potrace 1.14, written by Peter Selinger 2001-2017
</metadata>
<g transform="translate(0.000000,512.000000) scale(0.100000,-0.100000)"
fill="#000000" stroke="none">
<path d="M4978 5115 c-2 -2 -52 -6 -113 -10 -60 -3 -126 -8 -145 -10 -19 -2
-80 -6 -135 -10 -163 -10 -172 -13 -180 -54 -3 -17 8 -36 42 -72 25 -27 44
-51 42 -54 -2 -2 -325 -326 -718 -720 -537 -538 -721 -715 -738 -715 -17 0
-146 122 -508 485 -347 348 -490 485 -506 485 -31 0 -2019 -1989 -2019 -2020
0 -15 60 -83 183 -206 159 -161 186 -184 210 -182 23 2 184 159 816 791 602
603 792 787 811 787 18 0 139 -116 508 -485 334 -334 491 -485 506 -485 15 0
304 283 948 927 l927 927 50 -47 c53 -50 67 -55 94 -34 19 14 23 37 32 172 3
55 8 123 10 150 23 285 25 349 15 365 -6 10 -28 15 -69 16 -33 1 -62 0 -63 -1z"/>
<path d="M3960 2687 c-45 -11 -88 -52 -101 -97 -6 -20 -9 -83 -7 -140 4 -121
19 -153 89 -188 l40 -20 -29 -7 c-34 -7 -76 -48 -91 -88 -6 -16 -11 -74 -11
-129 0 -140 26 -183 130 -221 9 -3 4 -6 -12 -6 -34 -1 -87 -45 -104 -88 -22
-52 -19 -225 5 -271 17 -34 75 -80 94 -74 4 1 7 -1 7 -6 0 -4 -18 -16 -40 -26
-61 -29 -80 -78 -80 -205 0 -123 19 -170 84 -203 l40 -20 -30 -13 c-35 -14
-81 -66 -90 -100 -3 -13 -4 -72 -2 -132 2 -89 7 -113 23 -135 21 -27 74 -64
88 -60 4 1 7 -2 7 -6 0 -4 -15 -13 -32 -20 -18 -6 -44 -28 -58 -49 -23 -33
-25 -48 -28 -152 -3 -112 -2 -117 24 -158 49 -74 37 -73 618 -73 l513 0 33 23
c63 42 75 68 78 173 2 53 1 111 -3 130 -8 44 -58 102 -97 112 l-31 8 39 17
c22 10 50 34 64 54 22 32 25 50 28 137 2 55 -1 116 -7 137 -13 43 -71 99 -104
99 -17 0 -10 7 25 27 69 38 88 82 88 206 0 129 -23 181 -93 212 l-29 12 45 26
c61 36 77 79 77 203 0 128 -24 179 -98 210 l-27 11 38 18 c23 11 47 34 62 60
22 37 25 53 25 142 0 137 -30 200 -103 218 l-27 7 42 23 c29 15 51 37 66 66
21 40 23 55 20 154 -3 96 -6 114 -26 143 -49 68 -32 66 -592 67 -278 1 -521
-3 -540 -8z"/>
<path d="M2226 1789 c-37 -10 -75 -46 -92 -86 -9 -20 -14 -70 -14 -133 0 -122
16 -163 80 -199 l43 -24 -29 -12 c-67 -29 -93 -81 -95 -193 -4 -140 16 -188
91 -227 l35 -18 -25 -9 c-14 -5 -36 -19 -48 -31 -44 -40 -52 -71 -53 -180 0
-131 14 -167 86 -208 29 -17 42 -29 32 -29 -32 0 -74 -31 -96 -70 -17 -30 -21
-56 -22 -142 -1 -131 16 -174 84 -207 42 -21 55 -21 552 -21 493 0 510 1 551
21 64 30 84 79 84 202 0 60 -5 110 -14 130 -14 35 -69 87 -91 87 -8 0 -17 5
-20 10 -4 6 -3 9 2 8 23 -7 85 39 103 78 25 50 28 215 6 268 -16 37 -73 86
-102 86 -12 0 -1 10 28 27 69 38 88 82 88 205 0 61 -5 108 -15 131 -17 42 -68
87 -98 87 -16 0 -10 7 25 27 69 38 88 82 88 205 0 113 -14 155 -67 195 l-36
28 -516 1 c-284 0 -529 -3 -545 -7z"/>
<path d="M787 1684 c-1 -1 -29 -5 -61 -9 -109 -12 -267 -73 -358 -137 -186
-131 -306 -314 -353 -542 -13 -60 -13 -255 -1 -306 3 -14 9 -41 12 -60 19
-100 105 -256 197 -357 108 -117 281 -221 414 -248 245 -50 446 -19 642 100
205 124 348 333 391 572 12 70 16 194 7 238 -4 17 -9 50 -12 74 -10 70 -60
197 -111 277 -47 77 -138 176 -211 232 -91 70 -229 130 -343 151 -56 10 -206
21 -213 15z"/>
</g>
</svg>
